<svg width="280" height="120" viewBox="0 0 280 120" fill="none" xmlns="http://www.w3.org/2000/svg" role="img" aria-labelledby="title desc">
  <title id="title">ARVO Ventures logo</title>
  <desc id="desc">ARVO logo with blue and gold circular mark and black ARVO text.</desc>
  <path d="M72 17C47 20 28 39 25 63C22 87 40 106 65 106C50 97 43 83 46 66C49 47 59 31 72 17Z" fill="#FDB329"/>
  <path d="M87 14C58 16 35 38 31 66C28 87 38 101 56 108C45 97 40 82 44 65C49 40 66 21 87 14Z" fill="#0F56D9"/>
  <path d="M94 27C70 28 51 46 48 68C46 82 53 93 66 99C58 90 56 79 59 67C63 47 77 33 94 27Z" fill="#20B9F2"/>
  <path d="M86 40C69 42 57 53 55 68C54 80 60 88 71 93C66 86 65 78 67 69C69 55 77 46 86 40Z" fill="#0B1220"/>
  <path d="M78 72L95 46L113 72H101L95 62L88 72H78Z" fill="#0B1220"/>
  <path d="M101 76H76L70 86H107L101 76Z" fill="#0B1220"/>
  <path d="M117 47H151C161 47 167 53 167 62C167 68 164 73 158 76L169 90H153L144 78H131V90H117V47ZM131 58V67H149C152 67 154 65 154 62C154 59 152 58 149 58H131Z" fill="#050505"/>
  <path d="M171 47H186L200 76L214 47H229L207 90H193L171 47Z" fill="#050505"/>
  <path d="M230 69C230 56 240 46 255 46C270 46 280 56 280 69C280 82 270 92 255 92C240 92 230 82 230 69ZM244 69C244 76 248 81 255 81C262 81 266 76 266 69C266 62 262 57 255 57C248 57 244 62 244 69Z" fill="#050505"/>
</svg>
